<mxfile host="app.diagrams.net" modified="2024-04-01T20:33:39.784Z" agent="Mozilla/5.0 (Windows NT 10.0; Win64; x64) AppleWebKit/537.36 (KHTML, like Gecko) Chrome/123.0.0.0 Safari/537.36" etag="ZS-RL_drBnTr7cpeDjgO" version="22.1.21" type="github">
  <diagram id="C5RBs43oDa-KdzZeNtuy" name="Page-1">
    <mxGraphModel dx="1034" dy="446" grid="1" gridSize="10" guides="1" tooltips="1" connect="1" arrows="1" fold="1" page="1" pageScale="1" pageWidth="827" pageHeight="1169" math="0" shadow="0">
      <root>
        <mxCell id="WIyWlLk6GJQsqaUBKTNV-0" />
        <mxCell id="WIyWlLk6GJQsqaUBKTNV-1" parent="WIyWlLk6GJQsqaUBKTNV-0" />
        <mxCell id="WIyWlLk6GJQsqaUBKTNV-2" value="" style="rounded=0;html=1;jettySize=auto;orthogonalLoop=1;fontSize=11;endArrow=block;endFill=0;endSize=8;strokeWidth=1;shadow=0;labelBackgroundColor=none;edgeStyle=orthogonalEdgeStyle;" parent="WIyWlLk6GJQsqaUBKTNV-1" source="WIyWlLk6GJQsqaUBKTNV-3" edge="1">
          <mxGeometry relative="1" as="geometry">
            <mxPoint x="220" y="170" as="targetPoint" />
          </mxGeometry>
        </mxCell>
        <mxCell id="WIyWlLk6GJQsqaUBKTNV-3" value="Collect Data from farmers&lt;br&gt;&amp;nbsp;loan&amp;nbsp; institutions" style="rounded=1;whiteSpace=wrap;html=1;fontSize=12;glass=0;strokeWidth=1;shadow=0;" parent="WIyWlLk6GJQsqaUBKTNV-1" vertex="1">
          <mxGeometry x="160" y="40" width="120" height="70" as="geometry" />
        </mxCell>
        <mxCell id="Hbr0B6b1yLZcsNNqHbt9-7" value="" style="edgeStyle=orthogonalEdgeStyle;rounded=0;orthogonalLoop=1;jettySize=auto;html=1;" edge="1" parent="WIyWlLk6GJQsqaUBKTNV-1" source="Hbr0B6b1yLZcsNNqHbt9-1" target="Hbr0B6b1yLZcsNNqHbt9-5">
          <mxGeometry relative="1" as="geometry" />
        </mxCell>
        <mxCell id="Hbr0B6b1yLZcsNNqHbt9-1" value="Train machine learning model on collected data. This ML model will be used to calculate the probability of a farmer paying back the loan depending on various variables&amp;nbsp;" style="ellipse;whiteSpace=wrap;html=1;" vertex="1" parent="WIyWlLk6GJQsqaUBKTNV-1">
          <mxGeometry x="87.5" y="170" width="270" height="150" as="geometry" />
        </mxCell>
        <mxCell id="Hbr0B6b1yLZcsNNqHbt9-9" style="edgeStyle=orthogonalEdgeStyle;rounded=0;orthogonalLoop=1;jettySize=auto;html=1;exitX=1;exitY=0.5;exitDx=0;exitDy=0;entryX=1;entryY=0.5;entryDx=0;entryDy=0;" edge="1" parent="WIyWlLk6GJQsqaUBKTNV-1" source="Hbr0B6b1yLZcsNNqHbt9-5" target="WIyWlLk6GJQsqaUBKTNV-3">
          <mxGeometry relative="1" as="geometry">
            <mxPoint x="370" y="70" as="targetPoint" />
            <Array as="points">
              <mxPoint x="380" y="415" />
              <mxPoint x="380" y="75" />
            </Array>
          </mxGeometry>
        </mxCell>
        <mxCell id="Hbr0B6b1yLZcsNNqHbt9-10" value="Bad output/ predictions" style="edgeLabel;html=1;align=center;verticalAlign=middle;resizable=0;points=[];" vertex="1" connectable="0" parent="Hbr0B6b1yLZcsNNqHbt9-9">
          <mxGeometry x="-0.7552" y="-3" relative="1" as="geometry">
            <mxPoint x="88" y="-193" as="offset" />
          </mxGeometry>
        </mxCell>
        <mxCell id="Hbr0B6b1yLZcsNNqHbt9-12" style="edgeStyle=orthogonalEdgeStyle;rounded=0;orthogonalLoop=1;jettySize=auto;html=1;exitX=0.5;exitY=1;exitDx=0;exitDy=0;entryX=0.5;entryY=0;entryDx=0;entryDy=0;" edge="1" parent="WIyWlLk6GJQsqaUBKTNV-1" source="Hbr0B6b1yLZcsNNqHbt9-5" target="Hbr0B6b1yLZcsNNqHbt9-11">
          <mxGeometry relative="1" as="geometry" />
        </mxCell>
        <mxCell id="Hbr0B6b1yLZcsNNqHbt9-5" value="Test trained model" style="rhombus;whiteSpace=wrap;html=1;" vertex="1" parent="WIyWlLk6GJQsqaUBKTNV-1">
          <mxGeometry x="157.5" y="350" width="130" height="130" as="geometry" />
        </mxCell>
        <mxCell id="Hbr0B6b1yLZcsNNqHbt9-19" style="edgeStyle=orthogonalEdgeStyle;rounded=0;orthogonalLoop=1;jettySize=auto;html=1;exitX=0.5;exitY=1;exitDx=0;exitDy=0;entryX=0.5;entryY=0;entryDx=0;entryDy=0;" edge="1" parent="WIyWlLk6GJQsqaUBKTNV-1" source="Hbr0B6b1yLZcsNNqHbt9-11" target="Hbr0B6b1yLZcsNNqHbt9-18">
          <mxGeometry relative="1" as="geometry" />
        </mxCell>
        <mxCell id="Hbr0B6b1yLZcsNNqHbt9-11" value="Integrate Machine Learning model with system to make predictions on live data" style="ellipse;whiteSpace=wrap;html=1;" vertex="1" parent="WIyWlLk6GJQsqaUBKTNV-1">
          <mxGeometry x="139" y="545" width="167" height="115" as="geometry" />
        </mxCell>
        <mxCell id="Hbr0B6b1yLZcsNNqHbt9-14" value="Good output predictions" style="text;html=1;align=center;verticalAlign=middle;resizable=0;points=[];autosize=1;strokeColor=none;fillColor=none;" vertex="1" parent="WIyWlLk6GJQsqaUBKTNV-1">
          <mxGeometry x="220" y="488" width="150" height="30" as="geometry" />
        </mxCell>
        <mxCell id="Hbr0B6b1yLZcsNNqHbt9-16" style="edgeStyle=orthogonalEdgeStyle;rounded=0;orthogonalLoop=1;jettySize=auto;html=1;exitX=0.5;exitY=1;exitDx=0;exitDy=0;" edge="1" parent="WIyWlLk6GJQsqaUBKTNV-1" source="Hbr0B6b1yLZcsNNqHbt9-15" target="Hbr0B6b1yLZcsNNqHbt9-11">
          <mxGeometry relative="1" as="geometry" />
        </mxCell>
        <mxCell id="Hbr0B6b1yLZcsNNqHbt9-15" value="Credit score algorithm that calculates a farmers credit score depending on how quick they repay their loan" style="ellipse;whiteSpace=wrap;html=1;" vertex="1" parent="WIyWlLk6GJQsqaUBKTNV-1">
          <mxGeometry x="520" y="395" width="230" height="150" as="geometry" />
        </mxCell>
        <mxCell id="Hbr0B6b1yLZcsNNqHbt9-17" value="feed the ML model the farmers credit score&amp;nbsp;&lt;br&gt;when calculating the probability of a farmer&lt;br&gt;repaying a loan" style="text;html=1;align=center;verticalAlign=middle;resizable=0;points=[];autosize=1;strokeColor=none;fillColor=none;" vertex="1" parent="WIyWlLk6GJQsqaUBKTNV-1">
          <mxGeometry x="357.5" y="600" width="260" height="60" as="geometry" />
        </mxCell>
        <mxCell id="Hbr0B6b1yLZcsNNqHbt9-18" value="Make decisions on the output of the ML model" style="rounded=1;whiteSpace=wrap;html=1;" vertex="1" parent="WIyWlLk6GJQsqaUBKTNV-1">
          <mxGeometry x="162.5" y="750" width="120" height="60" as="geometry" />
        </mxCell>
      </root>
    </mxGraphModel>
  </diagram>
</mxfile>
